<?xml version="1.0" encoding="utf-8"?>
<!-- Generator: Adobe Illustrator 17.1.0, SVG Export Plug-In . SVG Version: 6.00 Build 0)  -->
<!DOCTYPE svg PUBLIC "-//W3C//DTD SVG 1.1//EN" "http://www.w3.org/Graphics/SVG/1.1/DTD/svg11.dtd">
<svg version="1.1" id="Layer_1" xmlns="http://www.w3.org/2000/svg" xmlns:xlink="http://www.w3.org/1999/xlink" x="0px" y="0px"
	 viewBox="0 0 436.7 62.2" enable-background="new 0 0 436.7 62.2" xml:space="preserve">
<g>
	<path d="M57.9,35.1c-5.2,0.6-5.6,1.5-5.6,6.9v8.2c0,3.3,0.1,6.3,0.8,8.7c-5.5,1.2-12.4,3.2-19.8,3.2C13.6,62.2,0,50,0,31.6
		C0,10.8,16.5,0,34.9,0c7.5,0,13.7,1.9,16.6,2.4c0.3,3.1,0.7,7.8,1.4,13.3l-1.3,0.4C49.9,5.8,42.8,2,33.1,2
		C18.8,2,8.6,13.3,8.6,30.4C8.6,44,16,60.2,34.1,60.2c3.4,0,6.3-0.6,8.2-1.5c1.8-0.9,2.9-2.3,2.9-6V43c0-6.5-0.6-7.2-8.8-7.8V34
		h21.6V35.1z"/>
	<path d="M67.3,60.9v-1.1c7.2-0.6,7.9-1.4,7.9-9.3V11.7c0-7.9-0.7-8.7-7.9-9.3V1.3h23.1v1.1c-7.3,0.6-8,1.4-8,9.3v38.8
		c0,7.9,0.7,8.7,8,9.3v1.1H67.3z"/>
	<path d="M163.1,2.4c-5.1,0.5-6.8,1.4-7.2,6.3c-0.2,2.9-0.4,6.7-0.4,14.9V62h-1.5l-40.3-49.8h-0.2v25.1c0,8.8,0.3,13.2,0.6,15.7
		c0.5,5.2,2.2,6.2,8.3,6.7v1.1H103v-1.1c5.3-0.5,7.3-1.5,7.7-6.7c0.2-2.5,0.6-6.9,0.6-15.7V16.2c0-7.2-0.3-8-1.9-10
		c-2.1-2.6-3.1-3.3-7.9-3.8V1.3H114l39.1,47.3h0.2V23.5c0-8.1-0.2-12-0.5-14.7c-0.5-4.8-2.2-6-8.6-6.3V1.3h18.9V2.4z"/>
	<path d="M246.2,47.3c-0.6,2.3-2.3,10.4-3.2,13.6h-39.5v-1.1c7.2-0.6,7.9-1.4,7.9-9.5V11.6c0-8.2-0.5-8.6-7.4-9.2V1.3h21.8v1.1
		c-6.5,0.6-7.3,1-7.3,9.2v38c0,5.2,0.4,7.2,1.9,8.2c1.7,1,4.7,1.2,8.9,1.2c6,0,9-0.5,11-2.9c1.7-2,3.2-4.9,4.5-9L246.2,47.3z"/>
	<path d="M291.8,60.9v-1.1c5.2-0.6,6.5-1.5,5.3-5.3c-1.1-3.9-3.2-9.6-5.9-17h-18.9c-2,5.7-3.5,10.3-4.9,14.5c-2,6.3-1.2,7.2,5.8,7.8
		v1.1H255v-1.1c5.4-0.6,6.7-1.7,9.8-9.7l19.4-49.6l1.5-0.6c5.8,16.6,11.7,33.3,17.8,50.2c2.9,8.2,4.2,9,9.7,9.6v1.1H291.8z
		 M282.4,11.2h-0.2c-3.1,7.9-6.2,16.3-8.9,23.7h17.2L282.4,11.2z"/>
	<path d="M383.5,2.4c-5.1,0.5-6.8,1.4-7.2,6.3c-0.2,2.9-0.4,6.7-0.4,14.9V62h-1.5l-40.3-49.8h-0.2v25.1c0,8.8,0.3,13.2,0.6,15.7
		c0.5,5.2,2.2,6.2,8.3,6.7v1.1h-19.4v-1.1c5.3-0.5,7.3-1.5,7.7-6.7c0.2-2.5,0.6-6.9,0.6-15.7V16.2c0-7.2-0.3-8-1.9-10
		c-2.1-2.6-3.1-3.3-7.9-3.8V1.3h12.5l39.1,47.3h0.2V23.5c0-8.1-0.2-12-0.5-14.7c-0.5-4.8-2.2-6-8.6-6.3V1.3h18.9V2.4z"/>
	<path d="M436.7,47.4c-0.6,3-2.2,10.2-3.1,13.5h-41.9v-1.1c8-0.6,8.7-1.4,8.7-9.3V12.2c0-8.7-0.7-9.2-7.4-9.8V1.3h38.7
		c0,2.9,0.4,8.9,0.6,12.1l-1.3,0.3c-0.8-3.7-1.7-5.9-2.9-7.4c-1.7-2.4-4.2-2.9-11.7-2.9h-6.2c-2.6,0-2.8,0.4-2.8,2.9V29h9.1
		c8.5,0,8.9-1.2,9.9-7h1.1v16.6h-1.1c-1-6.3-1.7-7.4-9.7-7.4h-9.3v19c0,4.3,0.6,6.2,2,7.4c1.7,1.3,4.9,1.3,9.4,1.3
		c8.6,0,10.3-0.9,12.3-3.5c1.6-2.1,3-5.4,4.1-8.4L436.7,47.4z"/>
</g>
</svg>
